<svg width="65" height="65" viewBox="0 0 65 65" fill="none" xmlns="http://www.w3.org/2000/svg">
<path d="M0 16C0 7.16344 7.16344 0 16 0H49C57.8366 0 65 7.16344 65 16V49C65 57.8366 57.8366 65 49 65H16C7.16344 65 0 57.8366 0 49V16Z" fill="#F16718"/>
<path fill-rule="evenodd" clip-rule="evenodd" d="M34.8867 32.5014L40.8611 26.5021C41.2092 26.1534 41.3821 25.6658 41.3346 25.1752C41.2859 24.684 41.0193 24.2402 40.6115 23.9651L33.0144 18.8527C32.5073 18.5106 31.8481 18.4777 31.3094 18.7644C30.7701 19.0517 30.4225 19.6129 30.4225 20.2228V28.1645L26.4727 24.1714C25.8299 23.5238 24.7939 23.5195 24.1463 24.1611C23.4986 24.8039 23.4937 25.8502 24.1365 26.4979L30.0896 32.5002L24.1365 38.502C23.4937 39.149 23.4986 40.1954 24.1463 40.8394C24.7939 41.4815 25.8305 41.4779 26.4727 40.829L30.4225 36.836V44.777C30.4225 45.3875 30.7701 45.9488 31.3094 46.2354C31.8481 46.5228 32.5073 46.4893 33.0144 46.1466L40.6109 41.036C41.0199 40.7602 41.2859 40.3159 41.334 39.8259C41.3815 39.3347 41.2086 38.8483 40.8604 38.4983L34.8867 32.5014ZM33.7752 23.3278L37.1334 25.5879L33.7752 28.9594V23.3278ZM33.7752 36.0441V41.6757L37.1334 39.4156L33.7752 36.0441Z" fill="white"/>
</svg>
