<svg width="65" height="65" viewBox="0 0 65 65" fill="none" xmlns="http://www.w3.org/2000/svg">
<path d="M0 16C0 7.16344 7.16344 0 16 0H49C57.8366 0 65 7.16344 65 16V49C65 57.8366 57.8366 65 49 65H16C7.16344 65 0 57.8366 0 49V16Z" fill="#F16718"/>
<path fill-rule="evenodd" clip-rule="evenodd" d="M45.8394 26.5H46.1608C47.4474 26.5 48.4941 27.5467 48.4941 28.8333V36.1667C48.4941 37.4533 47.4474 38.5 46.1608 38.5H45.8394V38.8333C45.8394 40.856 44.1941 42.5 42.1728 42.5H20.1728C18.1514 42.5 16.5061 40.856 16.5061 38.8333V26.1667C16.5061 24.144 18.1514 22.5 20.1728 22.5H42.1728C44.1941 22.5 45.8394 24.144 45.8394 26.1667V26.5ZM24.8394 38.5C25.3914 38.5 25.8394 38.052 25.8394 37.5V27.5C25.8394 26.948 25.3914 26.5 24.8394 26.5H21.5061C20.9541 26.5 20.5061 26.948 20.5061 27.5V37.5C20.5061 38.052 20.9541 38.5 21.5061 38.5H24.8394ZM33.8394 37.5C33.8394 38.052 33.3914 38.5 32.8394 38.5H29.5061C28.9541 38.5 28.5061 38.052 28.5061 37.5V27.5C28.5061 26.948 28.9541 26.5 29.5061 26.5H32.8394C33.3914 26.5 33.8394 26.948 33.8394 27.5V37.5ZM40.8394 38.5C41.3914 38.5 41.8394 38.052 41.8394 37.5V27.5C41.8394 26.948 41.3914 26.5 40.8394 26.5H37.5061C36.9541 26.5 36.5061 26.948 36.5061 27.5V37.5C36.5061 38.052 36.9541 38.5 37.5061 38.5H40.8394Z" fill="white"/>
</svg>
