<svg width="65" height="65" viewBox="0 0 65 65" fill="none" xmlns="http://www.w3.org/2000/svg">
<path d="M0 16C0 7.16344 7.16344 0 16 0H49C57.8366 0 65 7.16344 65 16V49C65 57.8366 57.8366 65 49 65H16C7.16344 65 0 57.8366 0 49V16Z" fill="#F16718"/>
<path fill-rule="evenodd" clip-rule="evenodd" d="M21.8877 22.3776H43.1122C44.1942 22.3776 45.0713 23.2547 45.0713 24.3368V36.4184C45.0713 37.5004 44.1942 38.3776 43.1122 38.3776H21.8877C20.8057 38.3776 19.9285 37.5004 19.9285 36.4184V24.3368C19.9285 23.2547 20.8057 22.3776 21.8877 22.3776ZM27.4387 42.6224L29.6917 39.6837H35.6019L37.855 42.6224H27.4387Z" fill="white"/>
</svg>
