<svg width="65" height="65" viewBox="0 0 65 65" fill="none" xmlns="http://www.w3.org/2000/svg">
<path d="M0 16C0 7.16344 7.16344 0 16 0H49C57.8366 0 65 7.16344 65 16V49C65 57.8366 57.8366 65 49 65H16C7.16344 65 0 57.8366 0 49V16Z" fill="#F16718"/>
<path fill-rule="evenodd" clip-rule="evenodd" d="M32.5 21.1093C31.948 21.1093 31.5 20.6613 31.5 20.1093V17.5C31.5 16.948 31.948 16.5 32.5 16.5C33.052 16.5 33.5 16.948 33.5 17.5V20.1093C33.5 20.6613 33.052 21.1093 32.5 21.1093ZM41.2613 24.7387C41.0053 24.7387 40.7493 24.6413 40.5547 24.4453C40.164 24.0547 40.164 23.4213 40.5547 23.0307L42.4 21.1853C42.7907 20.7947 43.424 20.7947 43.8147 21.1853C44.2053 21.576 44.2053 22.2093 43.8147 22.6L41.9693 24.4453C41.7733 24.64 41.5173 24.7387 41.2613 24.7387ZM44.8907 33.5H47.5C48.052 33.5 48.5 33.052 48.5 32.5C48.5 31.948 48.052 31.5 47.5 31.5H44.8907C44.3387 31.5 43.8907 31.948 43.8907 32.5C43.8907 33.052 44.3387 33.5 44.8907 33.5ZM43.1067 44.1067C42.8507 44.1067 42.5947 44.0093 42.4 43.8133L40.5547 41.968C40.164 41.5773 40.164 40.944 40.5547 40.5533C40.9453 40.1627 41.5787 40.1627 41.9693 40.5533L43.8147 42.3987C44.2053 42.7893 44.2053 43.4227 43.8147 43.8133C43.6187 44.0093 43.3627 44.1067 43.1067 44.1067ZM21.1867 43.8133C21.3813 44.0093 21.6373 44.1067 21.8933 44.1067C22.1493 44.1067 22.4053 44.0093 22.6013 43.8133L24.4467 41.968C24.8373 41.5773 24.8373 40.944 24.4467 40.5533C24.056 40.1627 23.4227 40.1627 23.032 40.5533L21.1867 42.3987C20.796 42.7893 20.796 43.4227 21.1867 43.8133ZM20.1093 33.5H17.5C16.948 33.5 16.5 33.052 16.5 32.5C16.5 31.948 16.948 31.5 17.5 31.5H20.1093C20.6613 31.5 21.1093 31.948 21.1093 32.5C21.1093 33.052 20.6613 33.5 20.1093 33.5ZM23.032 24.4453C23.2267 24.6413 23.4827 24.7387 23.7387 24.7387C23.9947 24.7387 24.2493 24.64 24.4467 24.4453C24.8373 24.0547 24.8373 23.4213 24.4467 23.0307L22.6013 21.1853C22.2107 20.7947 21.5773 20.7947 21.1867 21.1853C20.796 21.576 20.796 22.2093 21.1867 22.6L23.032 24.4453ZM36.5 44.5V46.1667C36.5 47.4467 35.4467 48.5 34.1667 48.5H30.8333C29.7133 48.5 28.5 47.6467 28.5 45.78V44.5H36.5ZM38.38 25.2467C36.1933 23.4733 33.3133 22.78 30.5 23.38C26.9667 24.1133 24.1 26.9933 23.3667 30.5267C22.62 34.1533 23.98 37.7533 26.8867 39.9533C27.6733 40.54 28.22 41.4467 28.4067 42.5V42.5133C28.4333 42.5 28.4733 42.5 28.5 42.5H36.5C36.5267 42.5 36.54 42.5 36.5667 42.5133V42.5C36.7533 41.4867 37.3533 40.5533 38.2733 39.8333C40.5267 38.0467 41.8333 35.38 41.8333 32.5C41.8333 29.6733 40.58 27.0333 38.38 25.2467ZM37.5 33.1667C36.9533 33.1667 36.5 32.7133 36.5 32.1667C36.5 30.14 34.86 28.5 32.8333 28.5C32.2867 28.5 31.8333 28.0467 31.8333 27.5C31.8333 26.9533 32.2867 26.5 32.8333 26.5C35.9533 26.5 38.5 29.0467 38.5 32.1667C38.5 32.7133 38.0467 33.1667 37.5 33.1667Z" fill="white"/>
</svg>
